PathFileType	4	(X/Y/Z)	s03c0303.trc
DataRate	CameraRate	NumFrames	NumMarkers	Units	OrigDataRate	OrigDataStartFrame	OrigNumFrames
200	200	4	50	mm	200	1750	2000
Frame#	Time	racr			lacr			c7			jug			rlel			rdr			llel			ldr			s2			lic			ric			lasi			rasi			rpsi			lpsi			rgt			lgt			rth1			rth2			rth3			rth4			rlfc			rmfc			rsh1			rsh2			rsh3			rsh4			rlmal			rcal			rtoe			rmt5			rmt1			lth1			lth2			lth4			lth3			llfc			lmfc			lsh1			lsh2			lsh3			lsh4			llmal			lcal			ltoe			lmt1			lmt5			SBIKE			LBIKE			RBIKE			
		X1	Y1	Z1	X2	Y2	Z2	X3	Y3	Z3	X4	Y4	Z4	X5	Y5	Z5	X6	Y6	Z6	X7	Y7	Z7	X8	Y8	Z8	X9	Y9	Z9	X10	Y10	Z10	X11	Y11	Z11	X12	Y12	Z12	X13	Y13	Z13	X14	Y14	Z14	X15	Y15	Z15	X16	Y16	Z16	X17	Y17	Z17	X18	Y18	Z18	X19	Y19	Z19	X20	Y20	Z20	X21	Y21	Z21	X22	Y22	Z22	X23	Y23	Z23	X24	Y24	Z24	X25	Y25	Z25	X26	Y26	Z26	X27	Y27	Z27	X28	Y28	Z28	X29	Y29	Z29	X30	Y30	Z30	X31	Y31	Z31	X32	Y32	Z32	X33	Y33	Z33	X34	Y34	Z34	X35	Y35	Z35	X36	Y36	Z36	X37	Y37	Z37	X38	Y38	Z38	X39	Y39	Z39	X40	Y40	Z40	X41	Y41	Z41	X42	Y42	Z42	X43	Y43	Z43	X44	Y44	Z44	X45	Y45	Z45	X46	Y46	Z46	X47	Y47	Z47	X48	Y48	Z48	X49	Y49	Z49	X50	Y50	Z50	
1750	8.7500	678.356197	1407.111408	-59.497543	637.219487	1453.469578	-380.339513	610.273193	1513.921789	-207.685139	619.149454	1340.878585	-224.186892	588.039061	1151.723550	61.518941	738.393947	940.019908	-44.233749	619.134460	1188.281531	-470.572690	744.407022	916.738081	-423.233453	66.423175	1278.812448	-174.486799	226.522160	1300.071832	-368.042063	257.159692	1256.063713	-7.335684	239.669511	1220.086678	-338.082534	267.000375	1181.307049	-62.464485	107.637452	1317.426884	-125.064734	102.420702	1328.134535	-205.117695	166.772951	1152.475116	-4.589679	163.712135	1229.430665	-392.090223	187.972811	998.461872	6.702387	227.479140	918.985406	-1.748356	225.034984	834.692209	-18.664602	262.093397	928.157555	-9.948905	234.831047	715.125474	-61.280634	246.654176	701.715613	-172.673078	190.974783	551.861817	-34.878672	199.836091	463.508687	-46.587360	162.839149	383.382027	-50.542224	230.326480	460.958633	-71.177907	130.989918	253.983554	-76.100487	66.132233	223.462836	-109.613368	368.854150	152.570619	-118.847037	250.309868	160.521264	-44.839463	276.731893	175.168152	-158.462896	244.738837	1140.802763	-461.515068	320.144743	1110.554662	-492.412199	345.869147	1134.420880	-479.904810	369.171399	1040.969300	-521.097093	474.404558	952.385436	-546.925298	509.037334	927.702278	-422.869931	350.519320	829.482031	-530.966019	314.035938	759.129130	-497.301316	239.877525	715.656202	-469.110374	342.424770	739.939571	-478.609982	156.852816	628.496121	-423.251353	85.031413	616.287709	-366.765287	363.174217	484.675293	-362.775235	275.785035	518.812195	-319.966315	243.678670	506.641960	-436.111009	-120.710174	1018.107568	-241.805322	-14.144464	80.794095	-437.451321	-14.272833	80.645242	-37.059010	
1751	8.7550	678.058443	1407.052127	-59.366447	636.951539	1453.480095	-380.211751	609.966239	1513.864718	-207.473885	618.951252	1340.765344	-224.134801	587.771377	1151.522207	61.669393	738.322926	940.037598	-44.156752	619.050620	1188.269417	-470.341348	744.388268	916.688004	-423.150974	66.961474	1279.147170	-174.971955	226.226785	1300.203788	-367.963965	257.022933	1256.063934	-7.464039	239.292182	1220.148900	-338.133903	266.592035	1181.229181	-62.494140	107.293476	1317.504012	-125.145700	102.048567	1328.231633	-205.205020	166.354734	1152.522924	-4.642259	163.461191	1229.524197	-391.930224	187.521125	998.511640	6.658423	227.056960	919.044267	-1.745388	224.688782	834.738976	-18.670616	261.669844	928.260139	-9.927490	234.601941	715.193636	-61.274587	246.542035	701.814857	-172.712027	190.889577	551.920523	-34.903405	199.799238	463.581062	-46.604650	162.855102	383.424569	-50.546090	230.295680	461.044981	-71.191778	131.095770	253.991444	-76.135651	66.248423	223.500271	-109.618651	368.974242	152.572202	-118.863180	250.455115	160.538772	-44.840560	276.851544	175.173680	-158.476019	244.330858	1140.985800	-461.586592	319.720787	1110.780013	-492.536456	345.433484	1134.633192	-480.026100	368.713392	1041.202222	-521.236633	473.952669	952.604753	-547.095409	508.656154	927.929521	-423.111671	350.176277	829.580710	-531.124662	313.758024	759.208131	-497.392625	239.657766	715.685142	-469.187510	342.203112	740.037112	-478.726692	156.711534	628.506728	-423.284293	84.926330	616.295619	-366.768396	364.613844	485.190095	-362.873168	276.451423	519.079346	-319.143476	243.798002	506.795610	-436.805314	-120.737803	1018.110888	-241.786562	-14.141761	80.795755	-437.460563	-14.269706	80.664214	-37.066131	
1752	8.7600	677.718286	1406.827063	-59.236755	636.742083	1453.492598	-380.142351	609.667841	1513.803623	-207.293559	618.736942	1340.689943	-224.114194	587.487578	1151.365542	61.851115	738.255906	940.065195	-44.030265	618.966946	1188.246157	-470.099116	744.414753	916.666001	-423.115684	66.628444	1279.258074	-175.042014	225.963700	1300.320705	-368.014350	256.652117	1256.006225	-7.538412	238.922004	1220.263361	-338.201844	266.143827	1181.184254	-62.494871	106.902147	1317.599131	-125.189349	101.689744	1328.315714	-205.208361	165.894170	1152.539521	-4.705505	163.172084	1229.724225	-392.045714	187.104527	998.552957	6.610915	226.617792	919.068163	-1.733495	224.352005	834.794538	-18.660214	261.308273	928.310161	-9.860452	234.338220	715.236489	-61.289445	246.399380	701.904004	-172.762407	190.779312	551.998904	-34.933335	199.724622	463.669696	-46.630674	162.864682	383.473855	-50.585274	230.274209	461.146499	-71.201417	131.222974	253.995233	-76.142863	66.375829	223.469192	-109.647617	369.068400	152.599775	-118.859256	250.571505	160.574070	-44.861533	276.986494	175.193754	-158.486759	243.896734	1141.254715	-461.634360	319.307567	1111.019152	-492.677072	345.002883	1134.839903	-480.129904	368.263140	1041.406001	-521.403383	473.499986	952.837251	-547.289358	508.312297	928.183661	-423.355877	349.828651	829.651525	-531.303163	313.507251	759.298993	-497.457770	239.466339	715.719747	-469.258260	341.999685	740.150860	-478.862611	156.590202	628.531621	-423.309107	84.812820	616.327904	-366.753129	364.388648	485.429046	-363.417868	276.316430	519.073639	-319.139578	243.645155	506.785065	-436.815203	-120.456152	1019.424900	-239.539394	-14.132810	80.812057	-437.447154	-14.272511	80.655129	-37.071904	
1753	8.7650	677.410745	1406.743574	-59.063351	636.488433	1453.501443	-380.025511	609.350572	1513.753937	-207.090200	618.499488	1340.616312	-224.007262	587.044629	1151.296286	61.908474	738.185237	940.100546	-43.942520	618.873589	1188.235359	-469.855580	744.424994	916.659557	-423.088841	66.243705	1279.331522	-175.094027	225.678509	1300.441551	-368.108773	256.223340	1255.929154	-7.622609	238.598335	1220.321045	-338.271587	265.646485	1181.086624	-62.538502	106.480674	1317.717426	-125.203786	101.350839	1328.430142	-205.233504	165.396747	1152.581213	-4.791076	162.841277	1229.903410	-392.110219	186.665399	998.592722	6.567983	226.235503	919.110372	-1.705608	223.974287	834.855822	-18.643840	260.928756	928.345458	-9.795289	234.082046	715.285311	-61.329490	246.209445	701.995026	-172.799130	190.621187	552.068363	-34.972399	199.683329	463.747219	-46.660891	162.865020	383.501036	-50.617978	230.223412	461.254357	-71.231682	131.312369	254.018347	-76.172641	66.481480	223.472755	-109.675998	369.220199	152.629663	-118.822558	250.671478	160.577703	-44.873180	277.100749	175.230000	-158.476047	243.480156	1141.520436	-461.731759	318.870630	1111.261784	-492.808039	344.618978	1135.107629	-480.251966	367.834790	1041.617648	-521.563055	473.046807	953.134573	-547.529831	507.957906	928.497682	-423.670007	349.538977	829.739732	-531.450523	313.299463	759.360718	-497.533790	239.291926	715.757969	-469.327043	341.814054	740.282828	-478.994582	156.487537	628.561199	-423.327745	84.733822	616.384387	-366.742003	364.266218	485.430186	-363.396972	276.207070	519.080533	-319.132113	243.517026	506.758523	-436.806364	-120.461900	1019.433521	-239.459084	-14.148055	80.804822	-437.452326	-14.269295	80.666236	-37.055379	
